<svg width="16" height="22" viewBox="0 0 16 22" fill="none" xmlns="http://www.w3.org/2000/svg">
<rect x="0.5" y="3.5" width="15" height="15" rx="1.5" fill="#1890FF" stroke="#1890FF"/>
<path d="M3.91308 10.0352H3.91326C3.99256 10.0353 4.07081 10.0533 4.14213 10.088C4.21341 10.1226 4.27591 10.173 4.32497 10.2352L3.91308 10.0352ZM3.91308 10.0352H3.09394C2.89031 10.0352 2.7766 10.2698 2.90232 10.4292L2.90237 10.4293L6.11214 14.4957L6.11218 14.4957C6.32247 14.7619 6.72568 14.7611 6.93667 14.4962L6.93708 14.4957L12.6597 7.24398C12.6598 7.24378 12.66 7.24358 12.6602 7.24338C12.7884 7.08295 12.6699 6.85 12.4689 6.85H11.6498C11.4894 6.85 11.3367 6.9235 11.2376 7.05044C11.2375 7.05055 11.2374 7.05066 11.2373 7.05077L6.52403 13.0216M3.91308 10.0352L6.52403 13.0216M6.52403 13.0216L4.32506 10.2353L6.52403 13.0216Z" fill="white" stroke="white" stroke-width="0.3"/>
</svg>
